# xmcd CD database file
# Copyright (C) 1993-1998 Ti Kan
#
# Track frame offsets:
# 180
# 19862
# 46100
# 70802
# 92550
# 112945
# 129792
# 144922
# 176892
# 192977
# 215562
#
# Disc length: 3206 seconds
#
# Revision: 0
# Processed by: cddbd v1.4b41PL1 Copyright (c) Steve Scherf et al.
# Submitted via: inCDius 1.1b8
#
DISCID=910c840b
DTITLE=Ron Levy's Wild Kingdom - B-3 Blues and Grooves
DYEAR=1900
DGENRE=
TTITLE0=Levtronic Blues
TTITLE1=Summertime
TTITLE2=Chillin' Out
TTITLE3=Gimme A Break
TTITLE4=Prayin' The Blues (Part 1)
TTITLE5=Meter Made
TTITLE6=Defrostin'
TTITLE7=Eema's Song
TTITLE8=Funk Finger
TTITLE9=Rooseveltin'
TTITLE10=Prayin' The Blues (Part 2)
EXTD=
EXTT0=
EXTT1=
EXTT2=
EXTT3=
EXTT4=
EXTT5=
EXTT6=
EXTT7=
EXTT8=
EXTT9=
EXTT10=
PLAYORDER=
